<svg width="50" height="46" viewBox="0 0 50 46" fill="none" xmlns="http://www.w3.org/2000/svg">
<path fill-rule="evenodd" clip-rule="evenodd" d="M19.2633 0.618582C18.8325 0.630903 18.3523 0.6427 18.1962 0.644797L17.9123 0.648598L17.9231 3.80355C17.9471 10.7892 17.9668 12.7834 18.0108 12.6994C18.142 12.4489 18.1735 11.9739 18.1101 11.2035C18.0401 10.3566 18.1675 10.0351 18.6194 9.91738C18.7619 9.88028 19.1552 9.87609 21.3372 9.88893C24.4813 9.90728 27.4318 9.86652 27.7202 9.80059C28.4327 9.63793 28.5816 9.20014 28.5159 7.46092C28.4848 6.63685 28.431 6.47956 28.1328 6.34167L27.9966 6.27876L23.2366 6.27548C18.8732 6.27247 18.4682 6.26801 18.3737 6.22318C18.1491 6.11662 18.1144 5.92158 18.109 4.73693C18.1043 3.69463 18.1414 3.56526 18.4921 3.40076L18.6574 3.3233L21.14 3.33142C24.51 3.3423 27.3939 3.30128 27.6679 3.23849C28.3387 3.08448 28.4548 2.83518 28.4761 1.50215L28.4896 0.656463L28.1544 0.637719C27.6451 0.609276 20.1561 0.593285 19.2633 0.618582ZM19.4258 12.8174C19.1176 12.836 18.6295 12.8926 18.3086 12.9472C18.0831 12.9854 17.9481 12.9967 17.9366 12.9781C17.9267 12.9621 17.9186 15.7372 17.9186 19.1451C17.9186 22.5531 17.9083 26.1932 17.896 27.2346L17.8733 29.1277L17.9994 29.2L18.1254 29.2722H23.391C26.2871 29.2722 28.6647 29.2642 28.6742 29.2545C28.6839 29.2448 28.6604 29.165 28.6218 29.0771C28.4883 28.7725 28.4686 28.6307 28.4826 28.0752C28.5212 26.557 28.4966 26.43 28.1278 26.2419C27.9427 26.1475 27.9121 26.1467 23.571 26.1417C18.9172 26.1362 19.1119 26.1441 18.7097 25.946C18.2643 25.7268 18.1531 25.3371 18.1004 23.8119L18.0874 23.4351L19.6727 23.4318C26.2916 23.418 27.5938 23.3885 27.9385 23.2445C28.4484 23.0315 28.5826 22.4724 28.5172 20.8343C28.4859 20.0506 28.4661 19.9584 28.2909 19.7827C28.0851 19.5762 28.3837 19.5874 23.2168 19.5917C19.9894 19.5944 18.5193 19.5859 18.438 19.564C18.1548 19.4878 18.128 19.3647 18.1266 18.1301C18.1253 17.0263 18.1285 17.0046 18.3224 16.8237C18.5129 16.6461 18.222 16.6572 22.8542 16.6501C25.9027 16.6454 27.1623 16.6337 27.374 16.6084C28.3914 16.4864 28.531 16.2078 28.507 14.3457C28.4897 13.001 28.3806 12.8513 27.4056 12.8339C26.7922 12.823 19.5808 12.8081 19.4258 12.8174ZM37.048 29.3078C37.0848 29.3149 37.138 29.3146 37.1663 29.3072C37.1945 29.2998 37.1644 29.2941 37.0994 29.2943C37.0344 29.2947 37.0112 29.3008 37.048 29.3078ZM40.3651 34.2083C39.9019 34.8985 39.5112 35.4809 39.4969 35.5024C39.4753 35.535 41.7513 39.0103 41.7942 39.0103C41.8108 39.0103 42.7451 37.674 42.7369 37.6618C42.7329 37.6558 42.7562 37.6242 42.7887 37.5917C42.8468 37.5337 42.8478 37.4932 42.8478 35.2589V32.9851L42.9291 32.9728C42.9738 32.966 42.6047 32.9589 42.109 32.9569L41.2074 32.9533L40.3651 34.2083ZM11.589 35.4856L11.4068 35.496L11.3009 35.9454C11.2426 36.1925 11.0364 37.0721 10.8427 37.9001L10.4903 39.4055L10.793 40.4566C11.8918 44.2727 12.1852 45.2758 12.2028 45.2758C12.2138 45.2758 12.232 45.2265 12.2433 45.1662C12.2546 45.1059 12.4364 44.3313 12.6472 43.4447C13.6285 39.3176 13.853 38.3693 13.8661 38.2941C13.8739 38.2497 13.8887 38.1998 13.8988 38.1833C13.909 38.1667 13.9034 38.1532 13.8861 38.1532C13.8689 38.1532 13.8536 38.1699 13.8521 38.1902C13.8507 38.2105 13.5466 37.6153 13.1764 36.8677L12.5035 35.5082L13.5116 35.4927C14.5139 35.4775 14.5118 35.4774 13.1455 35.4763C12.3896 35.4757 11.6893 35.4799 11.589 35.4856ZM6.46897 35.5673C6.47251 35.5835 6.467 35.6167 6.45665 35.6411C6.43974 35.6805 5.28721 39.3693 5.19414 39.6817C5.15954 39.7978 6.46333 45.2752 6.52573 45.2757C6.55063 45.2759 7.86753 40.6877 7.8619 40.6199C7.84944 40.4692 6.54434 35.6218 6.50541 35.582C6.48168 35.5576 6.4653 35.551 6.46897 35.5673ZM36.5922 39.8167C36.2645 40.3078 35.5082 41.4346 34.9114 42.3205C34.3148 43.2063 33.8202 43.9535 33.8124 43.9808C33.8046 44.0082 33.7788 44.0379 33.7549 44.0471C33.7312 44.0563 33.7199 44.0771 33.73 44.0935C33.7401 44.1099 33.7362 44.1233 33.7211 44.1233C33.7061 44.1233 33.6576 44.1779 33.6133 44.2449C33.569 44.3118 33.5473 44.3575 33.565 44.3465C33.5878 44.3325 33.5973 44.4778 33.5973 44.843V45.3594L33.8114 45.3783C33.9293 45.3887 34.7702 45.3931 35.6803 45.3883L37.3347 45.3794L37.5734 45.0395C39.0768 42.8988 39.4786 42.3227 39.4786 42.3079C39.4786 42.2806 37.2319 38.9372 37.2087 38.9301C37.1973 38.9266 36.92 39.3256 36.5922 39.8167Z" fill="#3E388F"/>
<path fill-rule="evenodd" clip-rule="evenodd" d="M30.1467 0.641285L28.5138 0.649019V1.23243C28.5137 2.78356 28.3633 3.10849 27.569 3.27299C27.3745 3.31323 26.8028 3.32018 23.0361 3.32817C18.5716 3.33748 18.5929 3.33683 18.4039 3.46423C18.1304 3.64865 18.0971 3.81839 18.1209 4.90867C18.1453 6.01952 18.1794 6.16527 18.4304 6.23278C18.5014 6.25191 20.1916 6.26161 23.2297 6.26017C28.3683 6.25781 28.0921 6.24864 28.2851 6.42768C28.5117 6.6378 28.5547 6.91476 28.5366 8.04724C28.5183 9.18588 28.445 9.45773 28.1 9.6681C27.73 9.89394 27.5372 9.9022 22.7654 9.89814C18.2034 9.8942 18.5138 9.87913 18.2959 10.1156C18.0925 10.3362 18.0891 10.3773 18.158 11.7758C18.1778 12.1775 18.1347 12.4512 18.0083 12.7274C17.9343 12.8891 17.9124 13.0029 17.9555 13.0016C17.9677 13.0012 18.0309 12.9882 18.0959 12.9727C18.7494 12.8172 18.7458 12.8172 23.4229 12.82C28.0026 12.8228 27.9071 12.8199 28.1465 12.9585C28.475 13.1486 28.5293 13.3699 28.5262 14.5096C28.5219 16.1737 28.4032 16.4339 27.5719 16.601C27.3375 16.6481 26.9726 16.6525 23.0665 16.6561C18.0833 16.6606 18.3756 16.6412 18.216 16.9776C18.0849 17.2539 18.0824 19.0385 18.2128 19.3503C18.3169 19.5995 17.8497 19.578 23.2088 19.5797L27.9671 19.5811L28.1322 19.6571C28.4784 19.8163 28.519 19.9573 28.5366 21.057C28.566 22.9065 28.4234 23.2112 27.4499 23.3795C27.3156 23.4027 25.8801 23.4166 22.6841 23.4256L18.1107 23.4385L18.111 23.6806C18.1128 25.3789 18.3141 25.8868 19.0525 26.0556C19.3368 26.1207 21.8103 26.1576 25.189 26.1475L27.9375 26.1393L28.1033 26.217C28.5053 26.4055 28.5582 26.6311 28.5015 27.9131C28.4726 28.5652 28.4994 28.7863 28.6449 29.0997L28.7158 29.2524L28.9473 29.2641C29.0747 29.2705 30.9077 29.2794 33.0209 29.2839C35.1341 29.2883 37.5545 29.2944 38.3998 29.2974C41.3732 29.3079 43.1208 29.2757 43.4093 29.2052C45.031 28.8085 46.1611 27.6542 46.4978 26.0505C46.5645 25.7327 46.5946 24.911 46.6153 22.8291C46.6246 21.8863 46.6385 21.0027 46.6459 20.8655C46.6746 20.3424 46.6609 6.50174 46.6309 5.70232C46.564 3.92089 46.5014 3.54746 46.1534 2.85382C45.4626 1.47688 44.2347 0.709706 42.626 0.649805C42.0784 0.629358 33.8923 0.623852 30.1467 0.641285ZM46.7785 32.5526V32.7151H47.0001H47.2218V33.2767V33.8382H47.4435H47.6652V33.2767V32.7151H47.8868H48.1085V32.5526V32.3901H47.4435H46.7785V32.5526ZM48.404 33.1141V33.8382H48.5814H48.7586L48.7613 33.3284L48.764 32.8186L48.8366 33.0993C48.8764 33.2537 48.9366 33.4831 48.9701 33.6092L49.0311 33.8382H49.2046C49.3693 33.8382 49.3792 33.834 49.3988 33.7569C49.41 33.7122 49.4689 33.4828 49.5296 33.247L49.6399 32.8186L49.6426 33.3284L49.6453 33.8382H49.8227H50V33.1141V32.3901H49.7074H49.4149L49.317 32.7887C49.2631 33.008 49.21 33.1776 49.1989 33.1655C49.1877 33.1534 49.1353 32.9741 49.0825 32.7668L48.9863 32.3901H48.6952H48.404V33.1141Z" fill="#231C4C"/>
<path fill-rule="evenodd" clip-rule="evenodd" d="M4.53037 0.651672C2.03223 0.884066 0.424739 2.15339 0.0615322 4.18032C-0.021831 4.6455 -0.0198648 25.2413 0.0636294 25.696C0.43837 27.7379 1.93917 29.0127 4.08708 29.1136C4.67941 29.1416 17.841 29.1231 17.8697 29.0944C17.8942 29.0699 17.9305 8.98746 17.9132 5.01998L17.8942 0.658225L14.8179 0.638564C10.7814 0.612874 4.86684 0.620345 4.53037 0.651672ZM33.2426 32.9672C33.2426 32.9954 37.1494 38.8386 37.206 38.8952C37.2703 38.9595 39.4442 42.2137 39.4713 42.2862C39.4813 42.3131 39.9481 43.0234 40.5085 43.8646L41.5275 45.394H43.7867C45.6004 45.394 46.0431 45.3866 46.0316 45.3565C46.0093 45.2984 41.8392 39.0585 41.8003 39.0251C41.757 38.9877 39.4785 35.5858 39.4785 35.5584C39.4785 35.5474 39.0907 34.9563 38.6167 34.2449L37.7551 32.9516H35.4987C34.2579 32.9516 33.2426 32.9586 33.2426 32.9672ZM1.18523 35.5302C1.19388 35.5668 1.7035 37.7812 2.31745 40.451L3.43394 45.3054H4.96489C5.80677 45.3054 6.4957 45.2941 6.4957 45.2802C6.4957 45.2664 6.19646 44.0489 5.83076 42.5746C5.46506 41.1001 5.16622 39.878 5.16687 39.8584C5.1674 39.8389 4.9253 38.8421 4.62881 37.6433L4.08983 35.4637H2.62967H1.1695L1.18523 35.5302ZM6.52506 35.5302C6.56517 35.625 7.88469 40.6043 7.88509 40.6619C7.88522 40.6881 8.16113 41.747 8.49825 43.0148L9.11129 45.3202L10.6408 45.3124C11.4819 45.3082 12.1702 45.2971 12.1702 45.2877C12.1702 45.2782 11.7969 43.9782 11.3406 42.3989C10.8845 40.8196 10.4996 39.4676 10.4856 39.3944C10.4657 39.2901 9.72576 36.7023 9.41892 35.6632L9.36006 35.4637H7.92847H6.49701L6.52506 35.5302ZM24.1397 40.3255V45.1576H25.4992H26.8587V40.3255V35.4933H25.4992H24.1397V40.3255ZM28.632 40.3255V45.1576H29.9915H31.351V40.3255V35.4933H29.9915H28.632V40.3255ZM17.8474 38.0078C16.1371 38.1389 15.3123 38.686 14.9758 39.9122C14.9417 40.0366 14.9201 40.1446 14.9278 40.1522C14.9405 40.165 17.3543 40.4282 17.4624 40.4286C17.4909 40.4287 17.5352 40.365 17.5772 40.2636C17.8854 39.5199 19.3895 39.3239 19.7119 39.9856C19.8385 40.2454 19.8524 40.4491 19.7463 40.4913C19.1436 40.7309 18.0073 41.0148 16.8102 41.2246C15.4424 41.4645 14.7108 42.1761 14.7123 43.2649C14.7141 44.546 15.6698 45.3224 17.2388 45.3172C18.3802 45.3134 19.1593 45.0558 19.816 44.4653L19.9636 44.3327L20 44.5367C20.0201 44.6489 20.0814 44.8345 20.1363 44.9492L20.2362 45.1576H21.5083C22.2078 45.1576 22.7802 45.1498 22.7802 45.1403C22.7802 45.1309 22.7397 45.0308 22.6902 44.9179C22.4687 44.4131 22.4751 44.4881 22.4554 42.1874L22.4379 40.1185L22.3613 39.8375C22.125 38.9692 21.6648 38.4672 20.874 38.2146C20.2753 38.0235 18.8834 37.9284 17.8474 38.0078ZM19.7993 42.1061C19.8143 42.933 19.6072 43.3383 19.0259 43.6195C18.2559 43.9917 17.4877 43.7728 17.4374 43.1669C17.3994 42.7081 17.7695 42.425 18.7313 42.1769C18.9833 42.112 19.3091 42.0192 19.4554 41.9708C19.8191 41.8504 19.7946 41.8408 19.7993 42.1061Z" fill="#8B83BC"/>
<path fill-rule="evenodd" clip-rule="evenodd" d="M28.4969 1.29864C28.4969 1.66446 28.5011 1.81402 28.5063 1.63117C28.5116 1.44832 28.5116 1.14908 28.5063 0.966232C28.5011 0.783383 28.4969 0.932939 28.4969 1.29864ZM18.8129 3.32937C18.8497 3.33631 18.9029 3.33605 18.9311 3.32871C18.9594 3.32137 18.9293 3.31547 18.8643 3.31587C18.7992 3.31613 18.7762 3.32229 18.8129 3.32937ZM19.4775 3.33042C19.6198 3.33579 19.8526 3.33579 19.9948 3.33042C20.137 3.32504 20.0206 3.32059 19.7362 3.32059C19.4517 3.32059 19.3353 3.32504 19.4775 3.33042ZM25.0486 3.33055C25.394 3.33527 25.9592 3.33527 26.3047 3.33055C26.6501 3.32583 26.3675 3.3219 25.6766 3.3219C24.9858 3.3219 24.7031 3.32583 25.0486 3.33055ZM18.1208 5.42157C18.1209 5.5516 18.126 5.60115 18.1323 5.53155C18.1386 5.46208 18.1385 5.35564 18.1321 5.29522C18.1258 5.23466 18.1207 5.29155 18.1208 5.42157ZM19.6992 6.25599C19.7683 6.26215 19.8814 6.26215 19.9505 6.25599C20.0195 6.2497 19.9629 6.24459 19.8248 6.24459C19.6866 6.24459 19.6301 6.2497 19.6992 6.25599ZM27.2504 6.25612C27.3438 6.26202 27.4968 6.26202 27.5903 6.25612C27.6837 6.25022 27.6073 6.24551 27.4202 6.24551C27.2333 6.24551 27.1569 6.25022 27.2504 6.25612ZM18.7391 6.28509C18.784 6.29191 18.8505 6.29164 18.8868 6.2847C18.9232 6.27762 18.8864 6.27211 18.8051 6.27224C18.7239 6.27251 18.6941 6.27827 18.7391 6.28509ZM22.9797 6.28601C23.3088 6.29073 23.8476 6.29073 24.1767 6.28601C24.5058 6.28129 24.2366 6.27736 23.5782 6.27736C22.9199 6.27736 22.6506 6.28129 22.9797 6.28601ZM28.5255 7.46083C28.5256 7.68837 28.5302 7.77763 28.5358 7.65901C28.5415 7.54039 28.5413 7.35426 28.5357 7.24521C28.5301 7.13629 28.5255 7.23328 28.5255 7.46083ZM46.6687 8.37703C46.669 8.4583 46.6746 8.48805 46.6815 8.4431C46.6883 8.39814 46.6881 8.33168 46.6811 8.29537C46.6741 8.25894 46.6685 8.29577 46.6687 8.37703ZM28.5232 8.48045C28.5232 8.5861 28.5286 8.62935 28.5352 8.57653C28.5417 8.52371 28.5417 8.4372 28.5352 8.38437C28.5286 8.33155 28.5232 8.37481 28.5232 8.48045ZM46.6687 8.73172C46.669 8.81299 46.6746 8.84261 46.6815 8.79778C46.6883 8.75282 46.6881 8.68637 46.6811 8.64993C46.6741 8.61362 46.6685 8.65032 46.6687 8.73172ZM46.6691 9.1602C46.6691 9.24959 46.6746 9.28616 46.6815 9.24147C46.6883 9.19677 46.6883 9.12363 46.6815 9.07894C46.6746 9.03424 46.6691 9.07081 46.6691 9.1602ZM19.597 9.89147C19.7073 9.8971 19.8803 9.8971 19.9811 9.89133C20.0821 9.88557 19.9918 9.88098 19.7805 9.88098C19.5692 9.88098 19.4866 9.8857 19.597 9.89147ZM25.4347 9.8916C25.7324 9.89645 26.2112 9.89645 26.4987 9.8916C26.7861 9.88675 26.5426 9.88281 25.9573 9.88281C25.3722 9.88281 25.1369 9.88675 25.4347 9.8916ZM18.0912 10.8005C18.0913 10.9305 18.0965 10.98 18.1027 10.9106C18.109 10.841 18.1089 10.7347 18.1026 10.6741C18.0962 10.6136 18.0912 10.6704 18.0912 10.8005ZM18.1175 11.3177C18.1175 11.3746 18.1236 11.3979 18.131 11.3695C18.1385 11.3409 18.1385 11.2944 18.131 11.2659C18.1236 11.2375 18.1175 11.2608 18.1175 11.3177ZM18.1491 11.7315C18.1491 11.8209 18.1546 11.8574 18.1614 11.8127C18.1681 11.7681 18.1681 11.6949 18.1614 11.6502C18.1546 11.6055 18.1491 11.6421 18.1491 11.7315ZM18.1482 12.086C18.1482 12.1592 18.154 12.1892 18.161 12.1526C18.1681 12.1161 18.1681 12.0562 18.161 12.0196C18.154 11.983 18.1482 12.0129 18.1482 12.086ZM19.3445 12.8163C19.3811 12.8233 19.441 12.8233 19.4775 12.8163C19.5141 12.8092 19.4842 12.8034 19.4111 12.8034C19.338 12.8034 19.3079 12.8092 19.3445 12.8163ZM20.6453 12.8163C20.682 12.8233 20.7352 12.8231 20.7635 12.8157C20.7917 12.8083 20.7617 12.8025 20.6967 12.8029C20.6317 12.8031 20.6086 12.8092 20.6453 12.8163ZM27.0878 12.8173C27.1894 12.8231 27.3556 12.8231 27.4572 12.8173C27.5588 12.8115 27.4757 12.8068 27.2725 12.8068C27.0694 12.8068 26.9863 12.8115 27.0878 12.8173ZM28.5264 14.4061C28.5264 14.7638 28.5307 14.906 28.536 14.7222C28.5411 14.5384 28.5411 14.2459 28.5358 14.0719C28.5307 13.8981 28.5264 14.0485 28.5264 14.4061ZM28.4911 15.4553C28.4911 15.5122 28.4972 15.5355 28.5046 15.5071C28.5121 15.4786 28.5121 15.432 28.5046 15.4035C28.4972 15.3751 28.4911 15.3984 28.4911 15.4553ZM19.8929 16.6596C20.0686 16.6647 20.3479 16.6647 20.5136 16.6595C20.6792 16.6542 20.5356 16.6499 20.1943 16.65C19.8529 16.65 19.7173 16.6544 19.8929 16.6596ZM24.6517 16.6596C25.0714 16.6642 25.7496 16.6642 26.1589 16.6596C26.5683 16.655 26.2249 16.6512 25.3958 16.6512C24.5668 16.6512 24.232 16.655 24.6517 16.6596ZM18.1216 18.5881C18.1216 18.7588 18.1264 18.8286 18.1325 18.7433C18.1384 18.6578 18.1384 18.5182 18.1325 18.4329C18.1264 18.3476 18.1216 18.4174 18.1216 18.5881ZM19.6123 19.5854C19.8449 19.5904 20.2173 19.5904 20.4399 19.5854C20.6623 19.5805 20.472 19.5764 20.0169 19.5764C19.5618 19.5764 19.3798 19.5805 19.6123 19.5854ZM26.38 19.5854C26.5476 19.5907 26.8135 19.5907 26.9712 19.5854C27.1287 19.5801 26.9918 19.5757 26.6667 19.5757C26.3415 19.5759 26.2127 19.5802 26.38 19.5854ZM28.5252 20.8047C28.5252 21.0079 28.5299 21.091 28.5357 20.9894C28.5415 20.8878 28.5415 20.7216 28.5357 20.6199C28.5299 20.5183 28.5252 20.6015 28.5252 20.8047ZM28.523 21.9426C28.5231 22.0401 28.5286 22.0764 28.5353 22.0233C28.5418 21.9701 28.5417 21.8904 28.5349 21.846C28.5282 21.8015 28.5228 21.845 28.523 21.9426ZM27.1618 23.3963C27.1902 23.4038 27.2367 23.4038 27.2652 23.3963C27.2936 23.3888 27.2703 23.3828 27.2134 23.3828C27.1565 23.3828 27.1332 23.3888 27.1618 23.3963ZM23.1845 23.4276C23.8212 23.4321 24.8719 23.4321 25.5193 23.4276C26.1665 23.4232 25.6455 23.4195 24.3614 23.4195C23.0772 23.4195 22.5476 23.4232 23.1845 23.4276ZM18.0879 23.5237C18.0879 23.5806 18.0941 23.6038 18.1014 23.5753C18.1089 23.5469 18.1089 23.5004 18.1014 23.4719C18.0941 23.4435 18.0879 23.4668 18.0879 23.5237ZM18.1195 24.2626C18.1195 24.352 18.125 24.3885 18.1318 24.3438C18.1386 24.2991 18.1386 24.226 18.1318 24.1813C18.125 24.1366 18.1195 24.1732 18.1195 24.2626ZM20.2736 26.1466C20.5449 26.1515 20.9971 26.1515 21.2785 26.1466C21.5599 26.1418 21.338 26.1377 20.7853 26.1377C20.2327 26.1377 20.0024 26.1416 20.2736 26.1466ZM26.4819 26.1464C26.5755 26.1521 26.7283 26.1521 26.8219 26.1464C26.9153 26.1405 26.8388 26.1356 26.6519 26.1356C26.465 26.1356 26.3884 26.1405 26.4819 26.1464ZM28.5232 27.1293C28.5232 27.2349 28.5286 27.2782 28.5352 27.2254C28.5417 27.1725 28.5417 27.0862 28.5352 27.0332C28.5286 26.9804 28.5232 27.0236 28.5232 27.1293ZM28.4911 27.6317C28.4911 27.6886 28.4972 27.7119 28.5046 27.6835C28.5121 27.655 28.5121 27.6085 28.5046 27.5801C28.4972 27.5516 28.4911 27.5748 28.4911 27.6317ZM28.4652 28.208C28.4652 28.3543 28.4702 28.4179 28.4763 28.3493C28.4825 28.2808 28.4826 28.1611 28.4764 28.0834C28.4704 28.0057 28.4653 28.0618 28.4652 28.208ZM28.9941 29.2776C29.0225 29.2851 29.069 29.2851 29.0975 29.2776C29.1259 29.2701 29.1027 29.2641 29.0458 29.2641C28.9889 29.2641 28.9656 29.2701 28.9941 29.2776ZM29.201 29.2776C29.2295 29.2851 29.276 29.2851 29.3044 29.2776C29.3329 29.2701 29.3096 29.2641 29.2527 29.2641C29.1958 29.2641 29.1726 29.2701 29.201 29.2776ZM37.2546 29.3076C37.2912 29.3147 37.3509 29.3147 37.3875 29.3076C37.4241 29.3007 37.3942 29.2949 37.3211 29.2949C37.2479 29.2949 37.218 29.3007 37.2546 29.3076ZM37.5354 29.308C37.5801 29.3147 37.6532 29.3147 37.6979 29.308C37.7426 29.3012 37.706 29.2957 37.6166 29.2957C37.5272 29.2957 37.4907 29.3012 37.5354 29.308ZM39.7223 29.308C39.767 29.3147 39.8402 29.3147 39.8849 29.308C39.9296 29.3012 39.893 29.2957 39.8036 29.2957C39.7142 29.2957 39.6776 29.3012 39.7223 29.308ZM40.0179 29.3072C40.0464 29.3146 40.0929 29.3146 40.1213 29.3072C40.1498 29.2997 40.1266 29.2937 40.0697 29.2937C40.0127 29.2937 39.9895 29.2997 40.0179 29.3072ZM42.9291 32.9727L42.8478 32.985L42.8482 35.2514C42.8485 36.6402 42.8592 37.5011 42.8759 37.4748C42.8908 37.4512 42.8964 37.4212 42.8884 37.4083C42.8803 37.3953 42.8873 37.3848 42.9036 37.3848C42.9202 37.3848 42.9769 37.3216 43.0299 37.2444C43.0828 37.1671 43.1367 37.0907 43.1497 37.0744C43.1948 37.0178 43.9699 35.9198 44.8919 34.6065C45.1601 34.2246 45.5059 33.7325 45.6601 33.5131C45.8144 33.2937 45.9644 33.0776 45.9936 33.0329L46.0464 32.9516L44.5283 32.9559C43.6934 32.9584 42.9738 32.9659 42.9291 32.9727ZM13.0097 36.535C13.8268 38.2006 13.8318 38.21 13.8682 38.1723C13.8862 38.1535 14.038 37.5665 14.2054 36.8676C14.3727 36.1686 14.5163 35.5733 14.5241 35.5449C14.5376 35.4964 14.4758 35.4933 13.5185 35.4933H12.4985L13.0097 36.535ZM33.4666 44.4926C33.4029 44.5901 33.2465 44.8191 33.1192 45.0014C32.8226 45.4263 32.8036 45.3949 33.3533 45.389C33.6094 45.3863 33.7694 45.3789 33.7087 45.3725L33.5986 45.3609L33.5904 44.8381L33.5824 44.3152L33.4666 44.4926Z" fill="#2C2461"/>
<path fill-rule="evenodd" clip-rule="evenodd" d="M17.9178 4.04735C17.9178 5.19333 17.9214 5.66218 17.9259 5.08912C17.9304 4.5162 17.9304 3.57849 17.9259 3.00557C17.9214 2.43251 17.9178 2.90136 17.9178 4.04735ZM17.947 11.3473C17.947 12.1682 17.9508 12.504 17.9555 12.0936C17.9601 11.6831 17.9601 11.0114 17.9555 10.6011C17.9508 10.1907 17.947 10.5265 17.947 11.3473ZM17.9183 18.7655C17.9183 21.927 17.9217 23.2205 17.9259 21.6397C17.9302 20.0588 17.9302 17.4721 17.9259 15.8913C17.9217 14.3106 17.9183 15.6039 17.9183 18.7655ZM17.8874 26.9374C17.8872 27.4249 17.8913 27.6286 17.8963 27.3898C17.9013 27.1511 17.9013 26.7521 17.8963 26.5032C17.8914 26.2543 17.8874 26.4496 17.8874 26.9374ZM11.5131 35.4852C11.5663 35.4918 11.646 35.4916 11.6904 35.4848C11.7349 35.4781 11.6914 35.4728 11.5938 35.4729C11.4963 35.4732 11.46 35.4787 11.5131 35.4852ZM4.97367 45.3054L3.43683 45.321L4.98101 45.328C5.99553 45.3326 6.52533 45.3248 6.52533 45.3054C6.52533 45.2892 6.52192 45.2789 6.51786 45.2829C6.51379 45.2867 5.81897 45.2969 4.97367 45.3054ZM10.6481 45.3054L9.11129 45.321L10.6555 45.328C11.67 45.3326 12.1998 45.3248 12.1998 45.3054C12.1998 45.2892 12.1964 45.2789 12.1923 45.2829C12.1883 45.2867 11.4934 45.2969 10.6481 45.3054Z" fill="#5C53A0"/>
</svg>
